<mxfile host="65bd71144e">
    <diagram id="4fE4iWC4i7xKfn9tFvia" name="Page-1">
        <mxGraphModel dx="927" dy="599" grid="1" gridSize="10" guides="1" tooltips="1" connect="1" arrows="1" fold="1" page="1" pageScale="1" pageWidth="850" pageHeight="1100" math="0" shadow="0">
            <root>
                <mxCell id="0"/>
                <mxCell id="1" parent="0"/>
                <mxCell id="2" value="sprite_resource_data" style="rounded=0;whiteSpace=wrap;html=1;" parent="1" vertex="1">
                    <mxGeometry x="590" y="290" width="120" height="60" as="geometry"/>
                </mxCell>
                <mxCell id="3" value="UI_object" style="rounded=0;whiteSpace=wrap;html=1;" parent="1" vertex="1">
                    <mxGeometry x="510" y="100" width="120" height="60" as="geometry"/>
                </mxCell>
                <mxCell id="4" value="game_object" style="rounded=0;whiteSpace=wrap;html=1;" parent="1" vertex="1">
                    <mxGeometry x="670" y="100" width="120" height="60" as="geometry"/>
                </mxCell>
                <mxCell id="5" value="item_object" style="rounded=0;whiteSpace=wrap;html=1;" parent="1" vertex="1">
                    <mxGeometry x="590" y="430" width="120" height="60" as="geometry"/>
                </mxCell>
                <mxCell id="6" value="static_sprite" style="rounded=0;whiteSpace=wrap;html=1;" parent="1" vertex="1">
                    <mxGeometry x="900" y="430" width="120" height="60" as="geometry"/>
                </mxCell>
                <mxCell id="8" value="animated_sprite" style="rounded=0;whiteSpace=wrap;html=1;" parent="1" vertex="1">
                    <mxGeometry x="1040" y="430" width="120" height="60" as="geometry"/>
                </mxCell>
                <mxCell id="9" value="animation_library" style="rounded=0;whiteSpace=wrap;html=1;" parent="1" vertex="1">
                    <mxGeometry x="1180" y="430" width="120" height="60" as="geometry"/>
                </mxCell>
                <mxCell id="10" value="custom_object_sprite" style="rounded=0;whiteSpace=wrap;html=1;" parent="1" vertex="1">
                    <mxGeometry x="1320" y="430" width="120" height="60" as="geometry"/>
                </mxCell>
                <mxCell id="16" value="Sprite2D" style="rounded=0;whiteSpace=wrap;html=1;" parent="1" vertex="1">
                    <mxGeometry x="900" y="100" width="120" height="60" as="geometry"/>
                </mxCell>
                <mxCell id="17" value="AnimatedSprite2D" style="rounded=0;whiteSpace=wrap;html=1;" parent="1" vertex="1">
                    <mxGeometry x="1040" y="100" width="120" height="60" as="geometry"/>
                </mxCell>
                <mxCell id="18" value="AnimationPlayer" style="rounded=0;whiteSpace=wrap;html=1;" parent="1" vertex="1">
                    <mxGeometry x="1180" y="100" width="120" height="60" as="geometry"/>
                </mxCell>
                <mxCell id="19" value="Instantiated Node" style="rounded=0;whiteSpace=wrap;html=1;" parent="1" vertex="1">
                    <mxGeometry x="1320" y="100" width="120" height="60" as="geometry"/>
                </mxCell>
                <mxCell id="20" value="" style="endArrow=classic;html=1;" parent="1" source="6" target="16" edge="1">
                    <mxGeometry width="50" height="50" relative="1" as="geometry">
                        <mxPoint x="1000" y="400" as="sourcePoint"/>
                        <mxPoint x="1050" y="350" as="targetPoint"/>
                    </mxGeometry>
                </mxCell>
                <mxCell id="12" value="Image" style="rounded=0;whiteSpace=wrap;html=1;" parent="1" vertex="1">
                    <mxGeometry x="900" y="260" width="120" height="60" as="geometry"/>
                </mxCell>
                <mxCell id="21" value="" style="endArrow=classic;html=1;" parent="1" source="8" target="17" edge="1">
                    <mxGeometry width="50" height="50" relative="1" as="geometry">
                        <mxPoint x="1000" y="400" as="sourcePoint"/>
                        <mxPoint x="1050" y="350" as="targetPoint"/>
                    </mxGeometry>
                </mxCell>
                <mxCell id="13" value="SpriteFrames" style="rounded=0;whiteSpace=wrap;html=1;" parent="1" vertex="1">
                    <mxGeometry x="1040" y="260" width="120" height="60" as="geometry"/>
                </mxCell>
                <mxCell id="22" value="" style="endArrow=classic;html=1;" parent="1" source="9" target="18" edge="1">
                    <mxGeometry width="50" height="50" relative="1" as="geometry">
                        <mxPoint x="1000" y="400" as="sourcePoint"/>
                        <mxPoint x="1050" y="350" as="targetPoint"/>
                    </mxGeometry>
                </mxCell>
                <mxCell id="23" value="" style="endArrow=classic;html=1;" parent="1" source="10" target="19" edge="1">
                    <mxGeometry width="50" height="50" relative="1" as="geometry">
                        <mxPoint x="1000" y="400" as="sourcePoint"/>
                        <mxPoint x="1050" y="350" as="targetPoint"/>
                    </mxGeometry>
                </mxCell>
                <mxCell id="14" value="AnimationLibrary" style="rounded=0;whiteSpace=wrap;html=1;" parent="1" vertex="1">
                    <mxGeometry x="1180" y="260" width="120" height="60" as="geometry"/>
                </mxCell>
                <mxCell id="15" value="PackedScene" style="rounded=0;whiteSpace=wrap;html=1;" parent="1" vertex="1">
                    <mxGeometry x="1320" y="260" width="120" height="60" as="geometry"/>
                </mxCell>
                <mxCell id="24" value="" style="endArrow=classic;html=1;" parent="1" source="5" target="2" edge="1">
                    <mxGeometry width="50" height="50" relative="1" as="geometry">
                        <mxPoint x="810" y="260" as="sourcePoint"/>
                        <mxPoint x="860" y="210" as="targetPoint"/>
                    </mxGeometry>
                </mxCell>
                <mxCell id="26" value="" style="endArrow=classic;html=1;" parent="1" source="3" target="2" edge="1">
                    <mxGeometry width="50" height="50" relative="1" as="geometry">
                        <mxPoint x="810" y="260" as="sourcePoint"/>
                        <mxPoint x="860" y="210" as="targetPoint"/>
                    </mxGeometry>
                </mxCell>
                <mxCell id="27" value="" style="endArrow=classic;html=1;" parent="1" source="4" target="2" edge="1">
                    <mxGeometry width="50" height="50" relative="1" as="geometry">
                        <mxPoint x="810" y="260" as="sourcePoint"/>
                        <mxPoint x="860" y="210" as="targetPoint"/>
                    </mxGeometry>
                </mxCell>
                <mxCell id="28" value="Holds the data" style="text;html=1;strokeColor=none;fillColor=none;align=center;verticalAlign=middle;whiteSpace=wrap;rounded=0;" parent="1" vertex="1">
                    <mxGeometry x="570" y="380" width="60" height="30" as="geometry"/>
                </mxCell>
                <mxCell id="29" value="Uses data" style="text;html=1;strokeColor=none;fillColor=none;align=center;verticalAlign=middle;whiteSpace=wrap;rounded=0;" parent="1" vertex="1">
                    <mxGeometry x="550" y="230" width="60" height="30" as="geometry"/>
                </mxCell>
                <mxCell id="30" value="Uses data" style="text;html=1;strokeColor=none;fillColor=none;align=center;verticalAlign=middle;whiteSpace=wrap;rounded=0;" parent="1" vertex="1">
                    <mxGeometry x="690" y="230" width="60" height="30" as="geometry"/>
                </mxCell>
                <mxCell id="31" value="sprite_resource_data" style="rounded=0;whiteSpace=wrap;html=1;" parent="1" vertex="1">
                    <mxGeometry x="1510" y="190" width="120" height="60" as="geometry"/>
                </mxCell>
                <mxCell id="32" value="" style="endArrow=classic;html=1;" parent="1" source="19" target="31" edge="1">
                    <mxGeometry width="50" height="50" relative="1" as="geometry">
                        <mxPoint x="1170" y="360" as="sourcePoint"/>
                        <mxPoint x="1550" y="140" as="targetPoint"/>
                    </mxGeometry>
                </mxCell>
                <mxCell id="33" value="Uses data" style="text;html=1;strokeColor=none;fillColor=none;align=center;verticalAlign=middle;whiteSpace=wrap;rounded=0;" parent="1" vertex="1">
                    <mxGeometry x="1480" y="150" width="60" height="30" as="geometry"/>
                </mxCell>
                <mxCell id="34" value="&lt;h1&gt;sprite_resource_data&lt;/h1&gt;&lt;p&gt;This data holds things that an object might use graphically. It is up to the user what to do with the data.&lt;/p&gt;" style="text;html=1;strokeColor=none;fillColor=none;spacing=5;spacingTop=-20;whiteSpace=wrap;overflow=hidden;rounded=0;" parent="1" vertex="1">
                    <mxGeometry x="140" y="120" width="270" height="140" as="geometry"/>
                </mxCell>
                <mxCell id="47" value="&lt;h1&gt;Resource Instancer&lt;/h1&gt;&lt;p&gt;This is a node where it will instantiate needed stuff for like sprite_resource_data based on the parent node type. This instancer should also provides interface Nodes used within resource usage context.&lt;/p&gt;&lt;p&gt;Since this node uses normal Node (not 2D/3D), it will instance the needed nodes for the resource as parent's child.&lt;/p&gt;" style="text;html=1;strokeColor=none;fillColor=none;spacing=5;spacingTop=-20;whiteSpace=wrap;overflow=hidden;rounded=0;" parent="1" vertex="1">
                    <mxGeometry x="220" y="700" width="240" height="190" as="geometry"/>
                </mxCell>
                <mxCell id="49" value="&lt;h1&gt;When parent is not a Node2D&lt;/h1&gt;&lt;p&gt;If a parent is not a Node2D, the instancer can use SubViewportContainer and Texture object based on the parent Node type. This is the current workaround for it.&lt;/p&gt;" style="text;html=1;strokeColor=none;fillColor=none;spacing=5;spacingTop=-20;whiteSpace=wrap;overflow=hidden;rounded=0;" parent="1" vertex="1">
                    <mxGeometry x="220" y="920" width="240" height="170" as="geometry"/>
                </mxCell>
                <mxCell id="51" value="resource_instancer" style="rounded=0;whiteSpace=wrap;html=1;" parent="1" vertex="1">
                    <mxGeometry x="1720" y="955" width="120" height="60" as="geometry"/>
                </mxCell>
                <mxCell id="52" value="animation_interface" style="rounded=0;whiteSpace=wrap;html=1;" parent="1" vertex="1">
                    <mxGeometry x="1920" y="1105" width="120" height="60" as="geometry"/>
                </mxCell>
                <mxCell id="54" value="Resource objects" style="rounded=0;whiteSpace=wrap;html=1;" parent="1" vertex="1">
                    <mxGeometry x="2120" y="1105" width="120" height="60" as="geometry"/>
                </mxCell>
                <mxCell id="55" value="" style="endArrow=classic;html=1;" parent="1" source="60" target="52" edge="1">
                    <mxGeometry width="50" height="50" relative="1" as="geometry">
                        <mxPoint x="1840" y="875" as="sourcePoint"/>
                        <mxPoint x="1800" y="985" as="targetPoint"/>
                    </mxGeometry>
                </mxCell>
                <mxCell id="56" value="" style="endArrow=classic;html=1;" parent="1" source="60" target="54" edge="1">
                    <mxGeometry width="50" height="50" relative="1" as="geometry">
                        <mxPoint x="1840" y="875" as="sourcePoint"/>
                        <mxPoint x="1890" y="825" as="targetPoint"/>
                    </mxGeometry>
                </mxCell>
                <mxCell id="58" value="" style="endArrow=classic;startArrow=classic;html=1;edgeStyle=orthogonalEdgeStyle;curved=1;" parent="1" source="52" target="51" edge="1">
                    <mxGeometry width="50" height="50" relative="1" as="geometry">
                        <mxPoint x="1740" y="1075" as="sourcePoint"/>
                        <mxPoint x="1790" y="1025" as="targetPoint"/>
                        <Array as="points">
                            <mxPoint x="1660" y="1135"/>
                            <mxPoint x="1660" y="985"/>
                        </Array>
                    </mxGeometry>
                </mxCell>
                <mxCell id="75" style="edgeStyle=none;html=1;" parent="1" source="51" target="60" edge="1">
                    <mxGeometry relative="1" as="geometry"/>
                </mxCell>
                <mxCell id="60" value="SubViewport" style="rounded=0;whiteSpace=wrap;html=1;" parent="1" vertex="1">
                    <mxGeometry x="1920" y="955" width="120" height="60" as="geometry"/>
                </mxCell>
                <mxCell id="61" value="" style="endArrow=classic;html=1;curved=1;" parent="1" target="60" edge="1">
                    <mxGeometry width="50" height="50" relative="1" as="geometry">
                        <mxPoint x="1810" y="855" as="sourcePoint"/>
                        <mxPoint x="1790" y="1085" as="targetPoint"/>
                    </mxGeometry>
                </mxCell>
                <mxCell id="63" value="Instanced" style="text;html=1;strokeColor=none;fillColor=none;align=center;verticalAlign=middle;whiteSpace=wrap;rounded=0;" parent="1" vertex="1">
                    <mxGeometry x="1840" y="955" width="80" height="30" as="geometry"/>
                </mxCell>
                <mxCell id="64" value="As parent" style="text;html=1;strokeColor=none;fillColor=none;align=center;verticalAlign=middle;whiteSpace=wrap;rounded=0;" parent="1" vertex="1">
                    <mxGeometry x="1970" y="1025" width="80" height="30" as="geometry"/>
                </mxCell>
                <mxCell id="65" value="Instancer keeps node as interfacer reference" style="text;html=1;strokeColor=none;fillColor=none;align=center;verticalAlign=middle;whiteSpace=wrap;rounded=0;" parent="1" vertex="1">
                    <mxGeometry x="1520" y="1035" width="130" height="30" as="geometry"/>
                </mxCell>
                <mxCell id="66" value="Node3D/Control" style="rounded=0;whiteSpace=wrap;html=1;" parent="1" vertex="1">
                    <mxGeometry x="1720" y="795" width="120" height="60" as="geometry"/>
                </mxCell>
                <mxCell id="67" value="" style="endArrow=classic;html=1;curved=1;" parent="1" source="66" target="51" edge="1">
                    <mxGeometry width="50" height="50" relative="1" as="geometry">
                        <mxPoint x="1810" y="1055" as="sourcePoint"/>
                        <mxPoint x="1860" y="1005" as="targetPoint"/>
                    </mxGeometry>
                </mxCell>
                <mxCell id="68" value="As parent" style="text;html=1;strokeColor=none;fillColor=none;align=center;verticalAlign=middle;whiteSpace=wrap;rounded=0;" parent="1" vertex="1">
                    <mxGeometry x="1780" y="865" width="60" height="20" as="geometry"/>
                </mxCell>
                <mxCell id="69" value="" style="endArrow=classic;html=1;curved=1;edgeStyle=orthogonalEdgeStyle;exitX=1;exitY=0.5;exitDx=0;exitDy=0;" parent="1" source="66" target="60" edge="1">
                    <mxGeometry width="50" height="50" relative="1" as="geometry">
                        <mxPoint x="2100" y="995" as="sourcePoint"/>
                        <mxPoint x="1860" y="1005" as="targetPoint"/>
                        <Array as="points">
                            <mxPoint x="2080" y="825"/>
                            <mxPoint x="2080" y="985"/>
                        </Array>
                    </mxGeometry>
                </mxCell>
                <mxCell id="71" value="Used as texture" style="text;html=1;strokeColor=none;fillColor=none;align=center;verticalAlign=middle;whiteSpace=wrap;rounded=0;" parent="1" vertex="1">
                    <mxGeometry x="2080" y="875" width="60" height="30" as="geometry"/>
                </mxCell>
                <mxCell id="77" value="resource_instancer" style="rounded=0;whiteSpace=wrap;html=1;" parent="1" vertex="1">
                    <mxGeometry x="830" y="950" width="120" height="60" as="geometry"/>
                </mxCell>
                <mxCell id="78" value="animation_interface" style="rounded=0;whiteSpace=wrap;html=1;" parent="1" vertex="1">
                    <mxGeometry x="1030" y="1100" width="120" height="60" as="geometry"/>
                </mxCell>
                <mxCell id="79" value="Resource objects" style="rounded=0;whiteSpace=wrap;html=1;" parent="1" vertex="1">
                    <mxGeometry x="1230" y="1100" width="120" height="60" as="geometry"/>
                </mxCell>
                <mxCell id="80" value="" style="endArrow=classic;html=1;" parent="1" source="84" target="78" edge="1">
                    <mxGeometry width="50" height="50" relative="1" as="geometry">
                        <mxPoint x="950" y="870" as="sourcePoint"/>
                        <mxPoint x="910" y="980" as="targetPoint"/>
                    </mxGeometry>
                </mxCell>
                <mxCell id="81" value="" style="endArrow=classic;html=1;" parent="1" source="84" target="79" edge="1">
                    <mxGeometry width="50" height="50" relative="1" as="geometry">
                        <mxPoint x="950" y="870" as="sourcePoint"/>
                        <mxPoint x="1000" y="820" as="targetPoint"/>
                    </mxGeometry>
                </mxCell>
                <mxCell id="82" value="" style="endArrow=classic;startArrow=classic;html=1;edgeStyle=orthogonalEdgeStyle;curved=1;" parent="1" source="78" target="77" edge="1">
                    <mxGeometry width="50" height="50" relative="1" as="geometry">
                        <mxPoint x="850" y="1070" as="sourcePoint"/>
                        <mxPoint x="900" y="1020" as="targetPoint"/>
                        <Array as="points">
                            <mxPoint x="770" y="1130"/>
                            <mxPoint x="770" y="980"/>
                        </Array>
                    </mxGeometry>
                </mxCell>
                <mxCell id="83" style="edgeStyle=none;html=1;" parent="1" source="77" target="84" edge="1">
                    <mxGeometry relative="1" as="geometry"/>
                </mxCell>
                <mxCell id="84" value="Node2D" style="rounded=0;whiteSpace=wrap;html=1;" parent="1" vertex="1">
                    <mxGeometry x="1030" y="950" width="120" height="60" as="geometry"/>
                </mxCell>
                <mxCell id="85" value="" style="endArrow=classic;html=1;curved=1;" parent="1" target="84" edge="1">
                    <mxGeometry width="50" height="50" relative="1" as="geometry">
                        <mxPoint x="920" y="850" as="sourcePoint"/>
                        <mxPoint x="900" y="1080" as="targetPoint"/>
                    </mxGeometry>
                </mxCell>
                <mxCell id="86" value="Instanced" style="text;html=1;strokeColor=none;fillColor=none;align=center;verticalAlign=middle;whiteSpace=wrap;rounded=0;" parent="1" vertex="1">
                    <mxGeometry x="950" y="950" width="80" height="30" as="geometry"/>
                </mxCell>
                <mxCell id="87" value="As parent" style="text;html=1;strokeColor=none;fillColor=none;align=center;verticalAlign=middle;whiteSpace=wrap;rounded=0;" parent="1" vertex="1">
                    <mxGeometry x="1080" y="1020" width="80" height="30" as="geometry"/>
                </mxCell>
                <mxCell id="88" value="Instancer keeps node as interfacer reference" style="text;html=1;strokeColor=none;fillColor=none;align=center;verticalAlign=middle;whiteSpace=wrap;rounded=0;" parent="1" vertex="1">
                    <mxGeometry x="630" y="1030" width="130" height="30" as="geometry"/>
                </mxCell>
                <mxCell id="89" value="Game Object&lt;br&gt;(Node2D)" style="rounded=0;whiteSpace=wrap;html=1;" parent="1" vertex="1">
                    <mxGeometry x="830" y="790" width="120" height="60" as="geometry"/>
                </mxCell>
                <mxCell id="90" value="" style="endArrow=classic;html=1;curved=1;" parent="1" source="89" target="77" edge="1">
                    <mxGeometry width="50" height="50" relative="1" as="geometry">
                        <mxPoint x="920" y="1050" as="sourcePoint"/>
                        <mxPoint x="970" y="1000" as="targetPoint"/>
                    </mxGeometry>
                </mxCell>
                <mxCell id="91" value="As parent" style="text;html=1;strokeColor=none;fillColor=none;align=center;verticalAlign=middle;whiteSpace=wrap;rounded=0;" parent="1" vertex="1">
                    <mxGeometry x="890" y="850" width="60" height="30" as="geometry"/>
                </mxCell>
                <mxCell id="93" value="Used as pivot" style="text;html=1;strokeColor=none;fillColor=none;align=center;verticalAlign=middle;whiteSpace=wrap;rounded=0;" parent="1" vertex="1">
                    <mxGeometry x="1060" y="910" width="60" height="30" as="geometry"/>
                </mxCell>
                <mxCell id="94" value="When the parent is Node2D" style="text;strokeColor=none;fillColor=none;html=1;fontSize=24;fontStyle=1;verticalAlign=middle;align=center;" parent="1" vertex="1">
                    <mxGeometry x="840" y="680" width="100" height="40" as="geometry"/>
                </mxCell>
                <mxCell id="96" value="When the parent is&lt;br&gt;Control/Node3D" style="text;strokeColor=none;fillColor=none;html=1;fontSize=24;fontStyle=1;verticalAlign=middle;align=center;" parent="1" vertex="1">
                    <mxGeometry x="1730" y="680" width="100" height="40" as="geometry"/>
                </mxCell>
            </root>
        </mxGraphModel>
    </diagram>
</mxfile>